<svg width="16" height="16" viewBox="0 0 16 16" fill="none" xmlns="http://www.w3.org/2000/svg">
<path d="M2 12.6666H2.008M4.66667 12.6666C4.66667 11.9593 4.38571 11.2811 3.88562 10.781C3.38552 10.2809 2.70724 9.99992 2 9.99992M7.33333 12.6666C7.33333 11.2521 6.77143 9.89554 5.77124 8.89535C4.77104 7.89516 3.41449 7.33325 2 7.33325M10 12.6666H12C12.5304 12.6666 13.0391 12.4559 13.4142 12.0808C13.7893 11.7057 14 11.197 14 10.6666V5.33325C14 4.80282 13.7893 4.29411 13.4142 3.91904C13.0391 3.54397 12.5304 3.33325 12 3.33325H4C3.58965 3.33715 3.19044 3.46717 2.85651 3.70569C2.52258 3.94422 2.2701 4.27968 2.13333 4.66659" stroke="black" stroke-width="2" stroke-linecap="round" stroke-linejoin="round"/>
</svg>
