<svg width="16" height="16" viewBox="0 0 16 16" fill="none" xmlns="http://www.w3.org/2000/svg">
<path d="M10.2671 10.4487C10.791 10.6233 11.3573 10.3402 11.532 9.81623C11.7066 9.29228 11.4235 8.72596 10.8995 8.55132L10.5833 9.5L10.2671 10.4487ZM8.33331 8.75H7.33331C7.33331 9.18043 7.60874 9.56257 8.01709 9.69868L8.33331 8.75ZM9.33331 5.61391C9.33331 5.06163 8.8856 4.61391 8.33331 4.61391C7.78103 4.61391 7.33331 5.06163 7.33331 5.61391H8.33331H9.33331ZM10.5833 9.5L10.8995 8.55132L8.64954 7.80132L8.33331 8.75L8.01709 9.69868L10.2671 10.4487L10.5833 9.5ZM8.33331 8.75H9.33331V5.61391H8.33331H7.33331V8.75H8.33331ZM14.3333 8H13.3333C13.3333 10.7614 11.0947 13 8.33331 13V14V15C12.1993 15 15.3333 11.866 15.3333 8H14.3333ZM8.33331 14V13C5.57189 13 3.33331 10.7614 3.33331 8H2.33331H1.33331C1.33331 11.866 4.46732 15 8.33331 15V14ZM2.33331 8H3.33331C3.33331 5.23858 5.57189 3 8.33331 3V2V1C4.46732 1 1.33331 4.13401 1.33331 8H2.33331ZM8.33331 2V3C11.0947 3 13.3333 5.23858 13.3333 8H14.3333H15.3333C15.3333 4.13401 12.1993 1 8.33331 1V2Z" fill="black"/>
</svg>
