<svg width="33" height="33" viewBox="0 0 33 33" fill="none" xmlns="http://www.w3.org/2000/svg">
<path d="M12.1082 26.0755C5.44157 28.0755 5.44157 22.7422 2.7749 22.0755M21.4416 30.0755V24.9155C21.4916 24.2797 21.4057 23.6406 21.1896 23.0406C20.9735 22.4406 20.6321 21.8934 20.1882 21.4355C24.3749 20.9689 28.7749 19.3822 28.7749 12.1022C28.7746 10.2406 28.0585 8.45045 26.7749 7.10219C27.3827 5.47353 27.3397 3.67332 26.6549 2.07552C26.6549 2.07552 25.0816 1.60885 21.4416 4.04885C18.3856 3.22061 15.1642 3.22061 12.1082 4.04885C8.46824 1.60885 6.8949 2.07552 6.8949 2.07552C6.21007 3.67332 6.16709 5.47353 6.7749 7.10219C5.48174 8.46045 4.76493 10.2668 4.7749 12.1422C4.7749 19.3689 9.1749 20.9555 13.3616 21.4755C12.9229 21.9288 12.5846 22.4694 12.3686 23.0621C12.1527 23.6548 12.064 24.2863 12.1082 24.9155V30.0755" stroke="black" stroke-width="2" stroke-linecap="round" stroke-linejoin="round"/>
</svg>
