<svg width="33" height="33" viewBox="0 0 33 33" fill="none" xmlns="http://www.w3.org/2000/svg">
<path d="M21.5762 10.979C23.6979 10.979 25.7327 11.8219 27.233 13.3221C28.7333 14.8224 29.5762 16.8573 29.5762 18.979V28.3123H24.2428V18.979C24.2428 18.2718 23.9619 17.5935 23.4618 17.0934C22.9617 16.5933 22.2834 16.3123 21.5762 16.3123C20.8689 16.3123 20.1907 16.5933 19.6906 17.0934C19.1905 17.5935 18.9095 18.2718 18.9095 18.979V28.3123H13.5762V18.979C13.5762 16.8573 14.419 14.8224 15.9193 13.3221C17.4196 11.8219 19.4544 10.979 21.5762 10.979Z" stroke="black" stroke-width="2" stroke-linecap="round" stroke-linejoin="round"/>
<path d="M8.243 12.3123H2.90967V28.3123H8.243V12.3123Z" stroke="black" stroke-width="2" stroke-linecap="round" stroke-linejoin="round"/>
<path d="M5.57633 8.31234C7.04909 8.31234 8.243 7.11843 8.243 5.64567C8.243 4.17291 7.04909 2.979 5.57633 2.979C4.10358 2.979 2.90967 4.17291 2.90967 5.64567C2.90967 7.11843 4.10358 8.31234 5.57633 8.31234Z" stroke="black" stroke-width="2" stroke-linecap="round" stroke-linejoin="round"/>
</svg>
