<svg width="18" height="18" viewBox="0 0 18 18" fill="none" xmlns="http://www.w3.org/2000/svg">
<path d="M1.75122 7.75258C1.51628 7.53531 1.6439 7.14254 1.96167 7.10487L6.46436 6.5708C6.59387 6.55544 6.70636 6.47411 6.76099 6.35569L8.66016 2.23835C8.79419 1.94777 9.20728 1.94771 9.34131 2.23829L11.2405 6.3556C11.2951 6.47403 11.4069 6.55558 11.5364 6.57093L16.0393 7.10487C16.3571 7.14254 16.4843 7.53543 16.2494 7.75269L12.9208 10.8314C12.8251 10.92 12.7824 11.0518 12.8079 11.1797L13.6913 15.627C13.7536 15.9408 13.4196 16.184 13.1404 16.0277L9.18386 13.8125C9.07006 13.7488 8.9318 13.7491 8.818 13.8128L4.86108 16.0271C4.58185 16.1834 4.24721 15.9408 4.30957 15.627L5.19311 11.18C5.21852 11.0521 5.176 10.92 5.08025 10.8314L1.75122 7.75258Z" stroke="black" stroke-width="2" stroke-linecap="round" stroke-linejoin="round"/>
</svg>
