<svg width="16" height="16" viewBox="0 0 16 16" fill="none" xmlns="http://www.w3.org/2000/svg">
<path d="M10.8284 6.58579C11.219 6.19526 11.219 5.5621 10.8284 5.17157C10.4379 4.78105 9.80474 4.78105 9.41421 5.17157L10.1213 5.87868L10.8284 6.58579ZM5.17157 9.41421C4.78105 9.80474 4.78105 10.4379 5.17157 10.8284C5.5621 11.219 6.19526 11.219 6.58579 10.8284L5.87868 10.1213L5.17157 9.41421ZM9.41421 10.8284C9.80474 11.219 10.4379 11.219 10.8284 10.8284C11.219 10.4379 11.219 9.80474 10.8284 9.41421L10.1213 10.1213L9.41421 10.8284ZM6.58579 5.17157C6.19526 4.78105 5.5621 4.78105 5.17157 5.17157C4.78105 5.5621 4.78105 6.19526 5.17157 6.58579L5.87868 5.87868L6.58579 5.17157ZM14 8H13C13 10.7614 10.7614 13 8 13V14V15C11.866 15 15 11.866 15 8H14ZM8 14V13C5.23858 13 3 10.7614 3 8H2H1C1 11.866 4.13401 15 8 15V14ZM2 8H3C3 5.23858 5.23858 3 8 3V2V1C4.13401 1 1 4.13401 1 8H2ZM8 2V3C10.7614 3 13 5.23858 13 8H14H15C15 4.13401 11.866 1 8 1V2ZM10.1213 5.87868L9.41421 5.17157L7.29289 7.29289L8 8L8.70711 8.70711L10.8284 6.58579L10.1213 5.87868ZM8 8L7.29289 7.29289L5.17157 9.41421L5.87868 10.1213L6.58579 10.8284L8.70711 8.70711L8 8ZM10.1213 10.1213L10.8284 9.41421L8.70711 7.29289L8 8L7.29289 8.70711L9.41421 10.8284L10.1213 10.1213ZM8 8L8.70711 7.29289L6.58579 5.17157L5.87868 5.87868L5.17157 6.58579L7.29289 8.70711L8 8Z" fill="black"/>
</svg>
